<?xml version="1.0" standalone="no"?>
<!DOCTYPE svg PUBLIC "-//W3C//DTD SVG 20010904//EN"
 "http://www.w3.org/TR/2001/REC-SVG-20010904/DTD/svg10.dtd">
<svg version="1.0" xmlns="http://www.w3.org/2000/svg"
 width="477.000000pt" height="477.000000pt" viewBox="0 0 477.000000 477.000000"
 preserveAspectRatio="xMidYMid meet">

<g transform="translate(0.000000,477.000000) scale(0.100000,-0.100000)"
fill="#000000" stroke="none">
<path d="M2737 4206 c-47 -17 -71 -38 -91 -81 -50 -105 28 -229 144 -229 91 0
160 67 160 156 0 77 -39 133 -109 157 -43 14 -57 13 -104 -3z"/>
<path d="M1790 4063 c-30 -11 -70 -57 -76 -89 -12 -64 48 -134 116 -134 55 0
110 57 110 115 0 74 -82 133 -150 108z"/>
<path d="M2870 3892 c-52 -27 -119 -25 -170 5 -29 17 -31 17 -51 -4 -28 -27
-49 -110 -40 -154 l7 -34 176 -3 177 -2 7 45 c7 49 -11 112 -44 150 l-17 21
-45 -24z"/>
<path d="M1715 3820 c-8 -16 -15 -49 -15 -75 l0 -45 125 0 125 0 6 26 c8 30
-10 96 -30 113 -10 8 -20 7 -42 -4 -36 -19 -81 -19 -114 0 -35 20 -37 19 -55
-15z"/>
<path d="M1005 3665 c-28 -27 -30 -42 -14 -79 16 -34 57 -47 96 -31 49 21 58
71 18 110 -13 14 -36 25 -50 25 -14 0 -37 -11 -50 -25z"/>
<path d="M2252 3607 c-44 -46 -16 -117 46 -119 43 -1 75 30 75 73 0 62 -78 92
-121 46z"/>
<path d="M981 3521 c-24 -58 -15 -66 74 -66 l80 0 3 30 c2 17 -3 38 -11 49
-12 16 -17 17 -36 6 -22 -11 -48 -10 -82 4 -12 5 -20 -1 -28 -23z"/>
<path d="M3981 3484 c-34 -43 -26 -86 19 -109 59 -31 124 26 101 88 -20 52
-87 64 -120 21z"/>
<path d="M2230 3471 c-14 -27 -13 -71 3 -72 121 -10 145 -8 151 8 4 9 1 31 -5
50 -8 26 -15 33 -28 27 -30 -13 -79 -16 -85 -5 -11 16 -24 13 -36 -8z"/>
<path d="M3257 3425 c-31 -32 -39 -71 -23 -110 19 -44 44 -60 92 -60 77 0 125
76 90 143 -20 39 -44 52 -94 52 -29 0 -46 -7 -65 -25z"/>
<path d="M3960 3350 c-6 -11 -10 -33 -8 -48 3 -27 4 -27 83 -27 89 0 98 8 74
66 -9 22 -16 28 -28 23 -21 -10 -71 -10 -93 0 -12 5 -20 1 -28 -14z"/>
<path d="M2300 3294 c-233 -43 -379 -119 -540 -283 -76 -76 -105 -114 -142
-186 -145 -282 -152 -577 -18 -851 83 -171 183 -290 323 -386 62 -42 189 -108
208 -108 10 0 117 -66 147 -90 6 -6 13 -7 14 -3 15 73 17 -836 2 -1229 l-6
-158 152 0 151 0 -6 148 c-8 212 -25 954 -25 1107 l0 130 93 47 c50 26 119 59
151 73 273 118 497 410 551 720 19 110 19 179 0 288 -63 364 -337 665 -690
758 -78 20 -303 34 -365 23z m170 -139 c19 -3 53 -8 75 -11 101 -13 315 -117
399 -193 217 -197 268 -273 303 -456 17 -86 13 -246 -7 -320 -46 -165 -116
-291 -225 -401 -118 -119 -251 -192 -422 -230 -100 -22 -276 -15 -382 16 -229
65 -410 215 -516 425 -131 259 -121 550 26 797 77 131 222 263 342 311 114 47
116 47 190 54 31 3 57 9 57 12 0 7 94 5 160 -4z"/>
<path d="M2337 2826 c-211 -76 -275 -340 -119 -501 141 -146 388 -113 487 66
27 49 30 63 30 144 0 76 -4 97 -25 139 -32 62 -103 126 -166 149 -58 20 -154
22 -207 3z"/>
<path d="M2171 2241 c-59 -74 -85 -147 -85 -236 1 -44 6 -92 12 -107 l12 -28
329 0 329 0 13 69 c19 110 -9 216 -81 303 l-30 36 -57 -34 c-31 -18 -72 -36
-92 -40 -84 -14 -79 -2 -61 -149 17 -128 17 -130 -3 -153 l-21 -22 -21 20
c-20 19 -21 26 -13 83 5 34 12 94 16 134 l8 72 -55 12 c-53 10 -83 24 -143 63
-25 17 -26 16 -57 -23z"/>
<path d="M3225 3230 c-8 -16 -15 -45 -15 -65 l0 -35 115 0 115 0 0 43 c0 23
-7 52 -15 64 -14 21 -17 21 -50 7 -43 -18 -63 -18 -99 1 -36 19 -33 20 -51
-15z"/>
<path d="M1091 3086 c-13 -7 -30 -24 -37 -37 -55 -100 76 -200 157 -120 83 83
-17 214 -120 157z"/>
<path d="M3704 3090 c-33 -13 -82 -77 -90 -115 -10 -58 4 -105 45 -146 59 -60
149 -65 211 -12 42 35 60 74 60 130 0 91 -63 153 -155 152 -27 0 -59 -4 -71
-9z"/>
<path d="M1046 2888 c-9 -12 -16 -42 -16 -65 l0 -43 105 0 c58 0 108 -1 113
-2 9 -4 15 49 8 76 -4 11 -13 29 -20 40 -14 17 -16 17 -38 2 -28 -20 -70 -20
-108 -1 -27 14 -30 14 -44 -7z"/>
<path d="M3632 2788 c-33 -43 -46 -89 -43 -165 l1 -33 179 0 c177 0 179 0 185
23 10 39 6 81 -13 122 -28 62 -40 68 -86 45 -51 -26 -120 -26 -168 0 -44 24
-42 23 -55 8z"/>
<path d="M680 2591 c-105 -55 -109 -199 -7 -275 40 -29 134 -29 173 0 53 39
69 71 69 134 0 66 -18 99 -75 138 -41 28 -111 29 -160 3z"/>
<path d="M616 2291 c-35 -39 -53 -117 -40 -168 6 -23 8 -23 185 -23 l179 0 0
60 c0 58 -24 129 -49 145 -6 3 -27 -4 -48 -15 -49 -26 -117 -26 -168 0 -22 11
-40 20 -41 20 0 0 -9 -9 -18 -19z"/>
<path d="M3651 1956 c-13 -7 -30 -24 -37 -37 -54 -98 69 -196 155 -123 27 22
31 32 31 74 0 42 -4 52 -31 74 -34 29 -79 33 -118 12z"/>
<path d="M1194 1866 c-22 -22 -34 -44 -34 -61 0 -90 100 -137 169 -79 67 56
24 174 -64 174 -29 0 -45 -8 -71 -34z"/>
<path d="M3606 1758 c-9 -13 -16 -43 -16 -71 l0 -48 113 3 112 3 3 35 c2 20
-4 49 -13 67 -17 31 -19 32 -46 18 -36 -19 -72 -19 -109 0 -27 14 -30 14 -44
-7z"/>
<path d="M1165 1680 c-8 -16 -15 -47 -15 -70 l0 -41 113 3 112 3 3 41 c2 29
-3 48 -16 64 -18 22 -23 23 -46 12 -36 -16 -75 -15 -109 2 -26 14 -28 14 -42
-14z"/>
<path d="M4123 1680 c-25 -10 -43 -39 -43 -70 0 -29 44 -70 75 -70 33 0 75 42
75 75 0 30 -41 75 -67 74 -10 0 -28 -4 -40 -9z"/>
<path d="M4080 1521 c-23 -57 -14 -66 78 -69 l82 -3 0 28 c-1 42 -22 74 -40
63 -20 -13 -77 -13 -85 0 -11 17 -22 11 -35 -19z"/>
<path d="M3444 1411 c-85 -39 -119 -145 -72 -225 82 -142 298 -85 298 79 0 66
-29 112 -90 143 -54 27 -82 27 -136 3z"/>
<path d="M2935 1365 c-30 -30 -32 -55 -4 -86 11 -13 18 -19 15 -13 -3 6 3 19
14 29 11 10 20 15 20 10 0 -4 9 4 21 19 24 30 36 33 42 9 4 -17 5 -17 6 0 2
25 -35 57 -64 57 -14 0 -37 -11 -50 -25z"/>
<path d="M1774 1190 c-12 -4 -31 -21 -43 -36 -64 -82 34 -198 127 -150 38 19
54 47 54 91 0 43 -16 72 -52 90 -32 17 -54 18 -86 5z"/>
<path d="M3365 1100 c-25 -27 -45 -110 -36 -151 l7 -34 176 -3 c175 -2 176 -2
182 20 11 44 6 85 -20 136 -14 29 -29 52 -34 52 -4 0 -29 -10 -55 -21 -53 -24
-120 -21 -161 6 -30 20 -37 19 -59 -5z"/>
<path d="M1713 978 c-19 -40 -23 -59 -17 -84 6 -24 8 -24 121 -24 l116 0 -5
51 c-6 63 -26 86 -58 69 -22 -12 -84 -9 -125 4 -16 6 -24 2 -32 -16z"/>
</g>
</svg>
